<svg version="1.1" id="Ebene_1" xmlns="http://www.w3.org/2000/svg" x="0" y="0" viewBox="0 0 462.7 119.6" xml:space="preserve"><style>.st1{fill:#232e58}</style><path class="st1" fill="#232e58" d="M74.7 28.6v-9.2h10.9v9.2H74.7zM57.2 8.5h-4.1V3.1c.2-1 1-1.7 2.1-1.7 1 0 1.8.7 2 1.7v5.4zM24.7 28.6v-9.2h10.9v9.2H24.7zm62.6-2.7v-6.4H90v-4.4h-4.4v2.8H74.7v-2.8h-4.4v4.4h2.8v9.1h-4.7v-2.8h-2.8V7.2h2.7V2.8H64v2.7h-5.4V2.9C58.3 1.2 56.9 0 55.2 0s-3.1 1.2-3.4 2.9v2.7h-5.5V2.8H42v4.4h2.7v18.7H42v2.8h-4.7v-9.1H40v-4.4h-4.4V18H24.7v-2.8h-4.4v4.4h2.8V26h-2.8v4.4h23.2v-2.8h2.8V7.2h5.5v2.7h6.7V7.2H64v20.3h2.8v2.8H90v-4.4h-2.7zm14.2 46.4l6-9.4-4.3-9.1-5.4 1.3.7-18.1h-1.3l-.7 19.8 6-1.6 3.5 7.6-5.1 8-5.3-1.1-5.2 16.9 5.1 1.7-2.8 11.6-11.5.4-1.8-3.1-14.2 5.8 1.6 4.3-11.6 7.7-11.8-7.7 1.7-4.3-14.3-5.9-1.7 3.1-11.3-.3-3-11.6 5-1.9-5.2-16.8-5.2 1.2-5.1-8.1 3.5-7.5 6 1.6-.7-19.8h-1.3l.7 18.2-5.4-1.5-4.2 9.1 6 9.4 4.9-1.1 4.5 14.6-5 1.8 3.5 13.7 13 .3 1.6-2.8 12 5-1.5 4.1 13.3 8.7 13.1-8.7-1.5-4.1 12.1-4.9 1.5 2.8 13.3-.5L97 87.5l-5-1.7 4.5-14.6z"/><path class="st1" fill="#232e58" d="M99.7 37l-.6 16.5 4.8-1.2 5 10.7-6.8 10.7-4.7-1L93.6 85l4.9 1.7-3.8 15.6-15 .6-1.4-2.5-9.8 4 1.4 3.9-14.7 9.7-14.9-9.7 1.5-3.9-9.8-4.1-1.4 2.5-14.8-.4-4-15.7 4.9-1.8-3.8-12.3-4.6 1.1-6.9-10.8 5-10.7 4.7 1.3-.6-16.5H9.3l.5 14.8-4.2-1.1L0 63l7.7 12.1 4.3-1 3.1 10-4.8 1.9 4.5 17.6 16.5.5 1.2-2.2 7.7 3.2-1.5 3.7 16.5 10.8 16.2-10.8-1.3-3.6 7.7-3.2 1.2 2.2 16.7-.6 4.3-17.8-4.9-1.6 3.1-10 4.5.9 7.7-12-5.8-12.3-4.1 1L101 37z"/><path class="st1" fill="#232e58" d="M20.7 50.1l.6 12.1h7.2V50.1zm8.9 12.1h12v-12h-12v12zm1.5-10.6h9.1v9.1h-9.1v-9.1zm51.1-1.5v12.1h7.1v-1.5h-5.7v-9.1h6.1l.1-1.5zM25.1 76.4l3.4 11.9V76.4zm17.7 0h12v12h-12zm26.3 0h12v12h-12zM29.6 88.5h12v-12h-12v12zm1.5-10.6h9.1V87h-9.1v-9.1zm51.1-1.5v12.1l1.4-5.2v-5.4h1.5l.4-1.5zM55.9 88.5h12v-12h-12v12zm1.4-10.6h9.1V87h-9.1v-9.1zM29.6 63.3h12v12h-12zm52.6 0v12h3.7l3.3-12zm-60.8 0l.4 1.4H27v9.2h-2.6l.4 1.4h3.7v-12zM29.6 37h12v12h-12zm52.6 0v12h7.6l.5-12zM42.8 50.1h12v12h-12zm26.3 0h12v12h-12zM55.9 62.2h12v-12h-12v12zm1.4-10.6h9.1v9.1h-9.1v-9.1zm-1.4 11.7h12v12h-12zm-13.1 12h12v-12h-12v12zm1.4-10.6h9.1v9.1h-9.1v-9.1zm24.9 10.6h12v-12h-12v12zm1.4-10.6h9.1v9.1h-9.1v-9.1zM55.9 37h12v12h-12zM42.8 49h12V37h-12v12zm1.4-10.6h9.1v9.1h-9.1v-9.1zM69.1 49h12V37h-12v12zm1.4-10.6h9.1v9.1h-9.1v-9.1zM20.1 37l.1 1.4H27v9.2h-6.4V49h7.9V37zm9.5 52.6l12 5.4v-5.4zm26.3 0v11.2l12-5.4v-5.8zm-13.1 0v5.9l1.4.6V91h9.1v9.1l1.5.7V89.6zm26.3 0v5.3l1.4-.6V91h7.3l3.2-1.4zm393.6 14.6V103c-3.9-.4-4-.6-4.1-5.3l-.4-16.1c-.1-4.6.2-4.7 4.1-5v-1.2h-7.6l-10.3 22.2-10.1-22.2H427v1.2c4 .4 4.3.6 3.9 6.4l-.6 9.2c-.4 4.6-.6 6.6-.8 8.1-.3 1.9-1.2 2.4-3.8 2.7v1.2H436V103c-2.9-.3-4-.6-4.1-2.8 0-1.8 0-3.7.1-7.4l.7-12.7h.1l9.9 23.7h.9l10.8-24.3h.2l.1 18.1c0 4.7-.1 4.9-3.7 5.3v1.2h11.7zm-45 0V103c-3.6-.3-4-.5-4-4.3V80.9c0-3.8.4-4 4-4.3v-1.2h-11.8v1.2c3.6.3 4 .5 4 4.3v17.8c0 3.8-.4 4-4 4.3v1.2h11.8zM396.8 97c-.6 1.8-1.4 3.3-2.2 4.2-1 1.2-2.2 1.5-5.6 1.5-2.2 0-3.8 0-4.6-.6-.8-.6-1.1-1.5-1.1-3.6v-8.4h4.2c3.9 0 4.2.3 4.8 3.5h1.3v-8.5h-1.3c-.6 3-.8 3.3-4.8 3.3h-4.2V78.3c0-1.3.1-1.4 1.5-1.4h3.4c3.2 0 4.4.3 5 1.2.6 1 1 2 1.4 3.8l1.3-.2c-.1-2.3-.4-5.3-.4-6.4h-19.8v1.2c3.5.3 3.8.4 3.8 4.4v17.7c0 3.6-.4 4-4.4 4.3v1.2h21.4c.4-1.4 1.3-5.6 1.6-7l-1.3-.1zm-28.9-21.7h-11.6v1.2c3.5.3 3.8.5 3.8 4.2V88H345v-7.2c0-3.7.4-3.9 3.7-4.2v-1.2h-11.5v1.2c3.6.3 4 .5 4 4.2v17.9c0 3.7-.4 4-3.9 4.2v1.2H349V103c-3.6-.3-4-.5-4-4.2v-8.9h15.1v8.9c0 3.7-.4 4-4.2 4.2v1.2h11.9V103c-3.6-.3-4-.5-4-4.2v-18c0-3.7.4-3.9 4-4.2v-1.3zm-37.5 0h-10.5v1.2c3.1.2 4.1.8 4.4 2.8.1 1.2.3 3.3.3 7.4v10.9h-.1L306 75.3h-6.6v1.2c2.1.2 3.1.5 4 1.6.8 1.1.9 1.2.9 4.5v9.8c0 4.1-.1 6.2-.3 7.6-.2 2.2-1.3 2.8-3.9 2.9v1.2h10.5V103c-3-.2-4-.7-4.3-3-.1-1.3-.3-3.4-.3-7.5V81.3h.1l18.9 23.3h1.4V86.7c0-4.1.1-6.1.3-7.5.2-2 1.2-2.5 3.7-2.7v-1.2zm-37.1 0h-10.5v1.2c3.1.2 4.1.8 4.4 2.8.1 1.2.3 3.3.3 7.4v10.9h-.1l-18.5-22.3h-6.6v1.2c2.1.2 3.1.5 4 1.6.8 1.1.9 1.2.9 4.5v9.8c0 4.1-.1 6.2-.3 7.6-.2 2.2-1.3 2.8-3.9 2.9v1.2h10.5V103c-3-.2-4-.7-4.3-3-.1-1.3-.3-3.4-.3-7.5V81.3h.1l18.9 23.3h1.4V86.7c0-4.1.1-6.1.3-7.5.2-2 1.2-2.5 3.7-2.7v-1.2zm-46.2 16.5h-8.2c1.3-3.6 2.8-7.5 4.2-11.3h.1l3.9 11.3zm11.3 12.4V103c-2.9-.3-3.5-.7-4.9-4.5-2.8-7.7-5.8-16.2-8.6-23.8l-1.4.4-9.2 23.3c-1.6 3.9-2.2 4.2-5 4.6v1.2h9.6V103c-3.3-.3-3.7-.8-2.8-3.6.6-1.9 1.2-3.7 2-5.7h9.5c1 2.7 1.9 5.1 2.4 6.8.6 1.7.2 2.1-2.6 2.4v1.2h11zm-32.5 0V103c-3.9-.4-4-.6-4.1-5.3l-.4-16.1c-.1-4.6.2-4.7 4.1-5v-1.2h-7.6l-10.3 22.2-10.1-22.2h-7.3v1.2c4 .4 4.3.6 3.9 6.4l-.6 9.2c-.4 4.6-.6 6.6-.8 8.1-.3 1.9-1.2 2.4-3.8 2.7v1.2h10.3V103c-2.9-.3-4-.6-4.1-2.8 0-1.8 0-3.7.1-7.4l.7-12.7h.1l9.9 23.7h.9l10.8-24.3h.2l.1 18.1c0 4.7-.1 4.9-3.7 5.3v1.2h11.7zm-54.4-22.3c-.2-2.1-.4-4.9-.4-6.5h-19.5v1.2c3.4.3 3.8.5 3.8 4.4v17.7c0 3.8-.4 4.1-3.9 4.4v1.2h12.1V103c-4-.3-4.4-.5-4.4-4.4v-8h4.6c4 0 4.2.5 4.8 3.6h1.2v-8.5h-1.2c-.6 2.8-.8 3.2-4.8 3.2h-4.6V78.3c0-1.3.1-1.4 1.4-1.4h3.4c3.4 0 4.4.4 5.1 1.6.6.9.9 1.8 1.2 3.6l1.2-.2zm-42.1-5.6c5.8 0 10.7 5 10.7 14.3 0 8.5-4.4 12.7-9.4 12.7-6.3 0-10.8-6.1-10.8-14.4 0-8.4 4.6-12.6 9.5-12.6m.9-1.6c-9.3 0-14.9 7.4-14.9 15.4 0 8.5 6.4 14.8 14.4 14.8 8.1 0 14.8-5.9 14.8-15.5.1-8.9-6.7-14.7-14.3-14.7m267.4-37.8h-9.8v1.2c3.5.4 3.6.7 2.6 2.9-1.2 2.7-3.6 7.1-5.3 10-1.9-3.3-4.1-7-6-10.5-.8-1.5-.9-2 2.2-2.4v-1.2h-10.6v1.2c2.7.3 3.2.8 4.9 3.8 2.4 4.1 4 7 5.6 9.8.8 1.3.9 1.7.9 2.6v5.9c0 3.8-.4 4-4.4 4.3v1.2h12.6v-1.2c-4.1-.3-4.4-.6-4.4-4.3v-6c0-1.2.1-1.6.7-2.8 2.1-3.9 3.6-6.5 5.6-9.7 1.7-2.7 2.2-3.2 5.3-3.5v-1.3zm-30.6 6.8c-.2-2.6-.4-5.8-.4-7.9h-.9c-.7.8-1.1 1.1-2.3 1.1H346c-1.2 0-1.8-.1-2.4-1.1h-.9c-.1 2.4-.3 5.3-.5 8h1.3c.5-2 .9-3.2 1.4-4 .6-1 1.5-1.4 5.2-1.4h2.8v21.9c0 3.5-.4 4-4.4 4.2v1.2h12.7v-1.2c-4.2-.3-4.6-.7-4.6-4.2V38.5h3.2c3.3 0 4.1.3 4.8 1.4.5.7.9 1.8 1.4 4l1.1-.2zm-31.6 22.1v-1.2c-3.6-.3-4-.5-4-4.3V42.5c0-3.8.4-4 4-4.3V37h-11.8v1.2c3.6.3 4 .5 4 4.3v17.8c0 3.8-.4 4-4 4.3v1.2h11.8zm-21.6-22.4c-.4-2.8-.6-4.5-.8-6.1-1.7-.5-3.6-1-5.6-1-5.7 0-9.1 3.6-9.1 7.9 0 5 4.5 7.2 7.3 8.8 3.3 1.8 5.8 3.3 5.8 6.6 0 3.2-2 5.3-5.3 5.3-4.6 0-6.6-4.5-7.3-7.2l-1.3.3c.3 2.1.8 6 1.2 6.9.4.2 1.1.5 2.2.9 1.1.3 2.5.7 4.4.7 5.9 0 9.9-3.7 9.9-8.4 0-5-4.2-7.1-7.7-8.8-3.5-1.8-5.6-3.3-5.6-6.6 0-2.4 1.5-4.9 4.9-4.9 3.9 0 5 3.1 5.8 5.9l1.2-.3zM274 51.7V40.8c0-1.2.2-1.7.5-2 .4-.3 1.1-.4 2.4-.4 3.4 0 6.5 1.8 6.5 6.6 0 2.4-.7 4.2-2.4 5.5-1.1.9-2.6 1.2-4.8 1.2H274zM292.7 65c-1-.3-2-.8-3.2-2.1-1.1-1.2-2-2.3-3.6-4.6-1.3-2-3.2-5-4-6.4 3.3-1.4 5.6-3.8 5.6-7.6 0-2.7-1.2-4.7-2.9-5.8-1.7-1.1-3.9-1.5-7.1-1.5h-11v1.2c3.5.3 3.8.4 3.8 4.2v17.9c0 3.8-.4 4-4 4.3v1.2H278v-1.2c-3.6-.3-4-.5-4-4.3v-7.1h1.4c2.3 0 3.1.5 3.8 1.8 1.3 2.2 2.9 4.9 4.5 7.1 2 2.9 3.9 3.9 7.2 4h1.6l.2-1.1zm-34.5-6.4c-.6 1.8-1.4 3.3-2.2 4.2-1 1.2-2.2 1.5-5.6 1.5-2.2 0-3.8 0-4.6-.6-.8-.6-1.1-1.5-1.1-3.6v-8.4h4.2c3.9 0 4.2.3 4.8 3.5h1.3v-8.5h-1.3c-.6 3-.8 3.3-4.8 3.3h-4.2V39.9c0-1.3.1-1.4 1.5-1.4h3.4c3.2 0 4.4.3 5 1.2.6 1 1 2 1.4 3.8l1.3-.2c-.1-2.3-.4-5.3-.4-6.4h-19.8v1.2c3.5.3 3.8.4 3.8 4.4v17.7c0 3.6-.4 4-4.4 4.3v1.2H258c.4-1.4 1.3-5.6 1.6-7l-1.4-.1zm-24.6-21.7h-10v1.2c3.6.4 3.9.8 3 3.3-1.4 4.4-4.8 13.1-7 18.7h-.1c-3-7.6-6.2-16.2-7.4-19.4-.7-2-.5-2.3 2.6-2.6v-1.2h-10.9v1.3c2.6.2 3.3.6 4.6 3.9 2.6 6.4 6.2 16 9.2 24.1h1.4c3.3-9.1 8-20.4 9.2-23.3 1.7-4 2.3-4.4 5.3-4.8v-1.2zm-34.2 28.9v-1.2c-3.6-.3-4-.5-4-4.3V42.5c0-3.8.4-4 4-4.3V37h-11.8v1.2c3.6.3 4 .5 4 4.3v17.8c0 3.8-.4 4-4 4.3v1.2h11.8zm-18.6-28.9h-10.5v1.2c3.1.2 4.1.8 4.4 2.8.1 1.2.3 3.3.3 7.4v10.9h-.1l-18.5-22.3h-6.6v1.2c2.1.2 3.1.5 4 1.6.8 1.1.9 1.2.9 4.5V54c0 4.1-.1 6.2-.3 7.6-.2 2.2-1.3 2.8-3.9 2.9v1.2H161v-1.2c-3-.2-4-.7-4.3-3-.1-1.3-.3-3.4-.3-7.5V42.9h.1l18.9 23.3h1.4V48.3c0-4.1.1-6.1.3-7.5.2-2 1.2-2.5 3.7-2.7v-1.2zm-35.6 0h-10.6v1.2c3.1.2 4 .8 4.3 2.5.2 1.4.3 3.2.3 7.3v3.4c0 7.3-2 12.7-8.4 12.7-5.5 0-8.4-4.1-8.4-11.2V42.7c0-4 .4-4.3 3.9-4.5V37h-11.5v1.2c3.5.3 3.9.5 3.9 4.5v11.1c0 5.2 1.2 8.5 3.9 10.6 2 1.5 4.5 2.1 7.1 2.1 2.9 0 5.9-.9 7.9-3.1 2.6-2.7 3.4-6.5 3.4-11.7V48c0-4.1.1-6 .2-7.2.2-1.8 1.2-2.4 3.9-2.6v-1.3z"/></svg>